<?xml version="1.0" standalone="no"?>
<!DOCTYPE svg PUBLIC "-//W3C//DTD SVG 1.1//EN" "http://www.w3.org/Graphics/SVG/1.1/DTD/svg11.dtd" >
<svg xmlns="http://www.w3.org/2000/svg">
<metadata>
Created by FontPrep 20130207 at Tue Apr 15 14:38:42 2014
 By Sander Mulders
Creative Commons CC BY-SA 2012
</metadata>
<defs>
<font id="4260795ad0f81b1474d734fd38f51ff6" horiz-adv-x='1024' >
  <font-face 
    font-family="Entypo"
    font-weight="400"
    font-stretch="normal"
    units-per-em="2048"
    panose-1="0 0 0 0 0 0 0 0 0 0"
    ascent="1536"
    descent="-512"
    x-height="844"
    cap-height="942"
    bbox="-1.88679 -1.56452 1128.4 1025.33"
    underline-thickness="0"
    underline-position="-204"
    unicode-range="U+0020-2122"
  />
<missing-glyph horiz-adv-x="1024" 
 />
    <glyph glyph-name=".notdef" horiz-adv-x="1024" 
 />
    <glyph glyph-name=".null" horiz-adv-x="0" 
 />
    <glyph glyph-name="nonmarkingreturn" horiz-adv-x="681" 
 />
    <glyph glyph-name="space" unicode=" " horiz-adv-x="1024" 
 />
    <glyph glyph-name="exclam" unicode="!" horiz-adv-x="972" 
d="M690 880q19 15 53 15q35 0 86 -54q18 -19 21 -22q47 -47 -6 -186q-52 -139 -196 -283t-283 -195q-139 -52 -187 -5l-20 18q-54 56 -54 72t1 40t46 59q84 68 124 53q24 -9 34 -17t37 -37q43 -43 199 115t114 198q-49 49 -55 74q-6 45 49 117q18 23 37 38z" />
    <glyph glyph-name="quotedbl" unicode="&#x22;" horiz-adv-x="798" 
d="M614 205v676h-430v-676h430zM400 51q30 1 50 15t21 36q0 22 -20 37q-21 15 -51 15t-52 -16t-20 -36q0 -20 21 -36t51 -15zM594 1014q43 0 73 -31t29 -72v-798q0 -43 -30 -73t-72 -30h-389q-41 0 -72 30t-31 73v798q0 41 31 72t72 31h389z" />
    <glyph glyph-name="numbersign" unicode="#" horiz-adv-x="780" 
d="M244 614q8 -29 34 -43t55 -4q28 10 42 37q14 26 5 54t-35 42q-25 14 -53 6t-42 -36q-14 -27 -6 -56zM668 287q26 -82 -20 -162t-140 -113q-96 -29 -179 8t-106 119l-110 396q-19 69 7 137t87 106l-98 193q-18 31 14 49q33 16 47 -16l102 -197q82 23 158 -16t102 -119z
" />
    <glyph glyph-name="dollar" unicode="$" 
d="M1126 740q0 -10 -12 -15l-121 -84q-6 -4 -26 -10t-29 -6h-309l-41 235h350q37 0 55 -18l121 -82q12 -10 12 -20zM537 973q20 0 20 -21v-880q0 -20 -20 -21h-45q-20 0 -21 21v450h-182q-8 0 -29 4q-20 8 -27 13l-120 84q-11 4 -11 15t11 19l120 82q19 19 56 19h182v194
q0 20 21 21h45z" />
    <glyph glyph-name="percent" unicode="%" horiz-adv-x="1128" 
d="M1026 639v-375q0 -16 -17 -32t-34 -17h-821q-16 0 -33 16q-16 16 -17 33v375q0 12 1 14t18 -2q23 -12 202 -106q179 -95 196 -103t43 -8t43 8t197 102t200 106q22 11 22 -11zM131 809h866q21 0 25 -11q4 -10 -5 -24t-22 -20q-373 -201 -389 -209t-42 -8t-42 8t-389 209
q-12 6 -21 19t-6 25q4 11 25 11z" />
    <glyph glyph-name="ampersand" unicode="&#x26;" horiz-adv-x="1005" 
d="M166 258q53 -29 84 -82l82 19l24 22q-2 45 -49 94t-100 56l-23 -25zM901 733v-14l-555 -555l-244 -51l52 243l555 555q55 11 129 -63q33 -33 48 -66t15 -49z" />
    <glyph glyph-name="quotesingle" unicode="'" horiz-adv-x="1165" 
d="M355 8q-103 0 -176 73t-75 171t84 197q37 37 237 235q201 198 277 276q76 76 175 50q45 -12 79 -47t48 -82q27 -98 -54 -179l-485 -485q-43 -45 -91 -49t-81 29q-31 25 -28 75t46 97l342 340q27 27 49 0q27 -25 0 -52l-340 -340q-45 -45 -20 -69t72 18l485 486
q51 53 36 112q-15 60 -75 76t-112 -35l-508 -508q-66 -77 -64 -145t52 -119t120 -53t146 63l505 508q25 25 52 0t0 -51l-508 -508q-85 -84 -188 -84z" />
    <glyph glyph-name="parenleft" unicode="(" horiz-adv-x="1126" 
d="M471 410v-224l-369 342l369 332v-198q182 0 304 -97t174 -203t69 -169l6 -29q-88 156 -214 201t-339 45z" />
    <glyph glyph-name="parenright" unicode=")" 
d="M729 662q106 0 186 -52t118 -124q82 -158 89 -271l4 -51q-88 158 -172 202t-225 44v-224l-371 344l371 330v-198zM473 723l-217 -193l217 -200v-144l-371 344l371 330v-137z" />
    <glyph glyph-name="asterisk" unicode="*" horiz-adv-x="1126" 
d="M655 410q-213 0 -339 -45t-214 -201q14 70 60 164q47 94 103 160q55 66 159 119q104 54 231 55v198l369 -330l-369 -344v224z" />
    <glyph glyph-name="plus" unicode="+" horiz-adv-x="1167" 
d="M690 453q0 -63 36 -98t130 -70q209 -78 209 -125v-109h-963v109q0 47 209 125q96 35 132 69t36 99q1 23 -23 49t-32 76q-2 12 -24 24t-24 55t19 50q-10 51 -14 98t42 107t161 60q116 0 162 -60t42 -115l-14 -90q18 -8 17 -52t-22 -53q-19 -6 -24 -24q-7 -49 -31 -76
t-24 -49z" />
    <glyph glyph-name="comma" unicode="," 
d="M408 946q92 0 130 -53t33 -102l-10 -80q14 -8 13 -48t-17 -45q-15 -4 -20 -35q-7 -30 -25 -55q-18 -24 -18 -62t28 -69q29 -30 105 -61q188 -76 188 -125v-135h-713v180q0 45 82 78q82 34 111 64t29 68t-19 62q-18 25 -26 68q-2 10 -19 21q-16 11 -18 49t14 45
q-8 45 -11 87t34 95t129 53zM752 475q0 15 -14 33t-19 38t-17 29q-12 8 -13 36t11 34q-6 33 -8 65t26 72t96 39q68 0 98 -40q28 -40 26 -76l-8 -60q10 -6 9 -34t-13 -36t-15 -16q-6 -33 -19 -51t-13 -46q1 -60 107 -102q106 -43 128 -77q6 -12 12 -160v-47h-229v147
q0 53 -31 80t-157 88q43 31 43 84z" />
    <glyph glyph-name="hyphen" unicode="-" 
d="M973 563h153v-102h-153v-154h-103v154h-153v102h153v154h103v-154zM567 453q0 -63 36 -98t132 -70q186 -70 187 -125v-109h-820v205q18 8 48 17q116 34 159 75t43 105q0 23 -24 49t-31 76q-2 12 -24 24q-21 12 -23 55t18 50q-10 51 -14 98t43 107t163 60t163 -60t43 -115
l-15 -90q20 -8 21 -43q-4 -50 -26 -62t-23 -24q-8 -49 -32 -76t-24 -49z" />
    <glyph glyph-name="period" unicode="." 
d="M666 311q0 72 4 72q88 25 88 68q0 16 -29 57t-29 90q0 113 93 113q51 0 71 -28t20 -81t-27 -94q-28 -41 -28 -58q0 -16 22 -34t42 -27l22 -6l7 -72h-256zM563 711v-93h-256v93h256zM563 557v-92h-256v92h256zM563 403v-92h-256v92h256zM1024 205v614h-819v-614h819z
M1024 922q41 0 72 -31t30 -72v-614q0 -43 -30 -73t-72 -30h-819q-43 0 -73 30t-30 73v614q0 41 30 72t73 31h819z" />
    <glyph glyph-name="slash" unicode="/" 
d="M786 571q-170 0 -248 -43t-165 -186q0 130 78 248q107 162 335 162v159l340 -256l-340 -266v182zM870 215v55l103 86v-192q1 -20 -15 -36t-36 -15h-768q-23 0 -37 15t-15 36v563q0 23 14 37t38 14h295q-80 -61 -101 -90l-12 -12h-131v-461h665z" />
    <glyph glyph-name="zero" unicode="0" horiz-adv-x="716" 
d="M358 524q57 0 98 40q40 40 40 98t-40 98q-40 41 -98 41t-99 -40q-40 -40 -40 -98q0 -59 41 -99t98 -40zM358 922q106 0 182 -75t74 -183q0 -108 -63 -247q-63 -140 -129 -229l-64 -86q-19 23 -76 109q-180 272 -180 455q0 106 75 181t181 75z" />
    <glyph glyph-name="one" unicode="1" 
d="M1061 199v518l-172 108v-518zM821 307v518l-172 -108v-518zM582 199v518l-172 108v-518zM342 307v518l-172 -108v-518zM1126 737v-600q0 -20 -16 -31q-8 -4 -16 -4t-17 4l-223 140l-221 -140q-16 -10 -35 0l-221 140l-223 -140q-16 -10 -34 0t-18 31v600q0 18 17 29
l239 152q18 10 35 0l221 -140l224 140q18 10 34 0l240 -152q14 -10 14 -29z" />
    <glyph glyph-name="two" unicode="2" horiz-adv-x="1191" 
d="M545 565q-21 -20 -21 -51t20 -51q20 -21 51 -21q30 0 50 21q53 53 90 192q-137 -37 -190 -90zM362 281q13 90 51 190t82 144t127 77t144 45l61 11q-4 -27 -11 -69t-41 -132t-79 -134t-128 -77t-144 -45zM600 123q162 2 274 118q112 117 109 277q-2 160 -117 272
q-114 112 -276 110t-274 -118t-108 -276t116 -272q114 -112 276 -111zM947 169q-142 -145 -346 -149t-349 138q-146 142 -148 347q-2 203 140 349t345 149q204 3 349 -139t148 -345q3 -204 -139 -350z" />
    <glyph glyph-name="three" unicode="3" horiz-adv-x="1085" 
d="M877 840l-312 -287l29 -238zM902 941q63 28 78 -18q7 -22 -19 -70q-27 -48 -76 -150t-271 -510l-67 -121l-58 389l-387 55q454 254 594 322t168 82q28 16 38 21z" />
    <glyph glyph-name="four" unicode="4" horiz-adv-x="1085" 
d="M700 475v72h199q-14 127 -104 218t-217 103v-198h-72v198q-127 -12 -217 -103t-105 -218h199v-72h-199q14 -127 104 -217t218 -102v196h72v-196q127 12 217 102t104 217h-199zM543 952q182 0 311 -129t129 -311t-129 -311t-311 -129t-312 129q-129 129 -129 311t129 311
q130 129 312 129z" />
    <glyph glyph-name="five" unicode="5" horiz-adv-x="1024" 
d="M774 358q56 0 102 -45t46 -108t-45 -109t-109 -45q-64 0 -109 45t-45 109q0 16 2 24l-268 160q-41 -31 -98 -31t-103 45q-45 45 -45 109t45 108q45 46 103 46t98 -33l268 162q-2 8 -2 24q0 63 45 109t109 45q64 0 108 -45q46 -44 46 -108t-45 -109t-101 -45t-102 30
l-268 -159q4 -17 4 -25t-4 -25l268 -161q43 32 100 32z" />
    <glyph glyph-name="six" unicode="6" horiz-adv-x="1089" 
d="M985 651q0 -94 -72 -159l-368 -338l-369 338q-72 66 -72 160t68 154q68 62 158 62q92 0 155 -57l60 -53l57 53q66 57 156 57t158 -62q69 -62 69 -155z" />
    <glyph glyph-name="seven" unicode="7" horiz-adv-x="1105" 
d="M553 963l121 -345h330l-269 -202l94 -355l-276 213l-279 -213l95 355l-267 202h328z" />
    <glyph glyph-name="eight" unicode="8" horiz-adv-x="1126" 
d="M905 649q119 0 119 -149v-246q0 -62 -73 -120t-152 -58h-215q-50 0 -108 51t-118 51v410h17q57 0 129 76t84 116t14 84t12 62q10 20 39 20q74 0 74 -141l-10 -160q129 4 188 4zM102 543q0 45 43 45h162v-410h-160q-45 0 -45 49v316z" />
    <glyph glyph-name="nine" unicode="9" 
d="M1024 973q43 0 73 -31t29 -72v-307q0 -43 -30 -73t-72 -29h-51v-154l-154 154h-358v409q0 41 31 72t71 31h461zM399 399h369v-92q0 -43 -30 -73t-72 -29h-256l-154 -154v154h-51q-41 -1 -72 29t-31 73v307q0 41 31 72t72 31h194v-318z" />
    <glyph glyph-name="colon" unicode=":" horiz-adv-x="1024" 
d="M819 870q41 0 72 -30t31 -72v-358q0 -43 -31 -73t-72 -30h-205v-153l-204 153h-205q-43 0 -73 30t-30 73v358q0 41 30 72t73 30h614z" />
    <glyph glyph-name="semicolon" unicode=";" horiz-adv-x="983" 
d="M680 850q150 0 188 -150q39 -143 -42 -312q-103 -214 -294 -214v72q115 0 185 110q55 88 26 150q-16 37 -70 37t-98 45q-43 45 -43 108t43 109q44 45 105 45zM250 850q150 0 188 -150q39 -143 -42 -312q-103 -214 -294 -214v72q115 0 185 110q55 88 26 150q-16 37 -70 37
t-98 45q-43 45 -43 108t43 109q44 45 105 45z" />
    <glyph glyph-name="less" unicode="&#x3c;" horiz-adv-x="1208" 
d="M317 178h574l-72 334h-430zM1049 635q20 1 38 -19t19 -43v-180q0 -21 -18 -41t-39 -20h-101l45 -256h-778l45 256h-102q-20 0 -38 20q-17 20 -18 41v180q0 23 18 42t38 20h891zM168 690q-12 0 -18 8q-16 21 15 33q165 62 197 62h48v153h389v-153h45q38 0 198 -62
q30 -12 15 -33q-6 -8 -19 -8h-870z" />
    <glyph glyph-name="equal" unicode="=" horiz-adv-x="1026" 
d="M274 231q83 72 263 136v-2q14 -41 -18 -84t-89 -64q-98 -39 -156 14zM561 174q90 33 163 87q74 54 102 93q28 38 23 56t-47 29t-128 1t-190 -49t-178 -88q-72 -49 -96 -85t-18 -51t52 -27q47 -12 137 -5q90 6 180 39zM250 914q0 20 6 30t29 18t45 -12t53 -20
q135 2 205 -68t164 -274q28 -62 87 -76q59 -11 81 -80q24 -62 -76 -164t-260 -162q-168 -57 -303 -45q-135 13 -157 73t12 118q32 58 18 115q-56 197 -48 307t113 196q31 24 31 44z" />
    <glyph glyph-name="greater" unicode="&#x3e;" horiz-adv-x="1024" 
d="M556 350q-70 0 -120 51q-35 37 0 72q14 14 34 14t38 -14q49 -49 123 25l164 161q27 27 27 63t-27 66q-68 61 -121 9l-51 -52q-37 -33 -72 3q-14 14 -14 34t14 37l51 51q55 53 130 50t132 -59q58 -56 58 -137t-56 -136l-164 -162q-76 -76 -146 -76zM606 582q0 -20 -15 -36
t-37 -18q-22 0 -36 17q-49 49 -133 -35l-154 -152q-27 -26 -27 -62t27 -67q29 -27 67 -27t64 27l41 43q37 33 72 -2q17 -14 17 -36t-17 -35l-41 -41q-57 -56 -137 -56t-137 56q-58 56 -58 136q0 79 58 136l153 152q72 72 147 81t130 -47q16 -14 16 -34z" />
    <glyph glyph-name="question" unicode="?" horiz-adv-x="1126" 
d="M997 784q15 6 23 -1t0 -19q-194 -279 -283 -310q-43 -15 -73 -2q-30 14 -62 38t-66 39t-94 -4t-141 -87l92 -362h-104l-187 739l95 33q173 128 255 92q36 -16 64 -51t64 -73q34 -38 80 -64t132 -20q86 5 205 52z" />
    <glyph glyph-name="at" unicode="@" horiz-adv-x="1064" 
d="M532 326q78 0 133 54q54 54 54 132t-54 132q-55 54 -133 54t-133 -54t-55 -132t55 -132t133 -54zM879 512q0 -78 84 -125q-16 -47 -37 -86q-76 18 -140 -45q-55 -59 -34 -139q-43 -23 -84 -35q-50 82 -136 82t-137 -82q-41 12 -84 35q20 80 -35 137t-139 37
q-23 43 -35 86q82 47 82 130t-82 130q12 43 35 86q76 -18 135 41t39 143q43 23 84 35q51 -82 136 -82t137 82q41 -12 84 -35q-20 -84 38 -143t136 -41q20 -39 37 -86q-84 -47 -84 -125z" />
    <glyph glyph-name="A" unicode="A" horiz-adv-x="1128" 
d="M764 830q42 -77 119 -117q39 -19 63 -25t29 -3q4 3 -7 48t-69 104q-59 60 -134 83q-24 6 -28 2t1 -29t26 -63zM469 459q33 -33 84 14q20 20 24 44q3 24 -11 38t-39 10q-24 -4 -44 -24t-24 -44t10 -38zM700 958q25 28 96 4t133 -86t87 -134t-4 -93l-140 -139
q-16 -16 -63 -26t-98 -5l-418 -418q-18 -18 -57 -5t-77 50t-50 77t6 59l417 417q-6 49 4 97t27 65z" />
    <glyph glyph-name="B" unicode="B" horiz-adv-x="1126" 
d="M176 817q8 -94 55 -153t129 -117q-49 106 -55 270h-129zM564 920q-64 0 -111 -16t-65 -32q-18 -18 -19 -30q0 -12 18 -30q17 -18 65 -32q48 -16 112 -16t128 20q63 20 66 58q0 12 -18 29t-64 33q-48 16 -112 16zM766 547q82 55 129 115t55 155h-129q-2 -157 -55 -270z
M625 289v-68q75 -8 121 -32q46 -23 46 -59t-66 -62q-67 -26 -162 -27q-95 0 -162 27t-66 65q0 33 47 57t121 31v68q0 51 -34 86t-104 82t-101 71q-107 82 -141 184q-22 62 -22 140q0 16 10 26t27 11h176q51 94 249 94t249 -94h176q15 0 25 -11t10 -26q0 -152 -78 -239
t-166 -144t-122 -93t-33 -87z" />
    <glyph glyph-name="C" unicode="C" horiz-adv-x="1189" 
d="M833 586q-15 0 -25 22t17 37q2 0 25 12q-47 37 -94 2q-27 -20 -33 -54q-6 -33 13 -61t52 -34t68 18t27 78l-31 -18q-4 -2 -19 -2zM1071 1004q37 -109 -9 -204t-132 -161l18 -27q16 -23 8 -55l-51 -160q-12 -31 -35 -47l-477 -338q-39 -29 -63 4l-217 314q-12 16 -9 38
q4 22 21 33l477 338q25 16 55 17l162 2q31 -4 47 -27l29 -41q174 129 119 293q-10 29 18 39t39 -18z" />
    <glyph glyph-name="D" unicode="D" 
d="M989 594q14 0 25 10q10 10 10 25q0 37 -35 37q-14 0 -25 -12q-26 -27 0 -50q11 -10 25 -10zM614 205q106 0 182 75q75 75 74 181q0 106 -74 181q-76 75 -182 75t-181 -75t-75 -181t75 -181t181 -75zM1024 768q43 0 73 -31t29 -71v-461q0 -43 -30 -73t-72 -30h-819
q-41 0 -72 30t-31 73v461q0 42 31 72t72 30h123q33 0 41 29l32 96q8 29 39 29h348q35 0 41 -29l33 -96q6 -29 39 -29h123zM614 614q62 0 108 -45t46 -108t-45 -109t-109 -45q-64 0 -108 45q-45 44 -45 108t45 109t108 45z" />
    <glyph glyph-name="E" unicode="E" horiz-adv-x="1046" 
d="M942 541q0 -185 -131 -317t-316 -132t-317 131q-43 43 -76 99q128 -74 278 -55t259 128t128 259t-54 278q55 -31 98 -74q131 -133 131 -317z" />
    <glyph glyph-name="F" unicode="F" horiz-adv-x="1210" 
d="M655 313q33 0 56 23q23 22 23 54t-24 54q-22 22 -55 23q-33 0 -55 -23q-22 -22 -22 -54t22 -54t55 -23zM889 297q0 -37 -88 -100q-43 -31 -123 -53t-178 -21q-190 0 -298 102q-108 103 -98 237t108 254t220 156q299 85 549 -81q75 -49 105 -114t21 -108t-36 -49
q-16 -4 -55 10q-98 35 -166 -36q-31 -47 -22 -76t35 -67t26 -54z" />
    <glyph glyph-name="G" unicode="G" horiz-adv-x="1169" 
d="M344 813q186 109 518 68q174 -20 203 -52q4 -6 -2 -10q-78 -41 -133 -111t-81 -136q-71 -178 -163 -240q-141 -100 -391 -6q-68 -76 -115 -179q-12 -25 -49 -9t-27 42q44 102 132 198t182 156q195 128 323 177l58 20q-251 0 -468 -140q-93 -60 -163 -145q-29 248 176 367
z" />
    <glyph glyph-name="H" unicode="H" horiz-adv-x="800" 
d="M494 993q0 -63 103 -162t101 -192q0 -53 -43 -129q-20 -33 -26 -14q-2 6 4 19t3 53t-13 80t-45 74t-84 42v-547q2 -51 -39 -98t-113 -74t-140 -7t-90 76q-21 58 19 118q41 60 124 92t157 0v669h82z" />
    <glyph glyph-name="I" unicode="I" horiz-adv-x="1087" 
d="M184 768h721l-114 117h-494zM544 391q161 0 210 283h-95q-39 -190 -114 -191q-78 0 -117 191h-94q49 -283 210 -283zM844 82h-600q-31 0 -41 29q-93 637 -99 669t25 56q8 8 57 46q50 38 62 49t49 11h494q35 0 50 -12t65 -50t55 -44q29 -25 22 -62l-98 -663
q-10 -29 -41 -29z" />
    <glyph glyph-name="J" unicode="J" 
d="M707 584h233q92 0 123 -12q63 -24 63 -58q0 -35 -39 -52t-75 -20l-39 -2h-266l-230 -409h-102l127 409h-183l-114 -102h-103l82 174l-82 174h103l114 -102h183l-127 409h102z" />
    <glyph glyph-name="K" unicode="K" horiz-adv-x="1150" 
d="M862 512q0 -64 -31 -125l107 -63q47 88 46 190t-46 186l-107 -63q31 -61 31 -125zM350 512q0 -94 66 -160t158 -65q93 -1 160 65t67 160t-67 160t-160 66q-92 0 -158 -66t-66 -160zM574 225q-65 0 -125 29l-64 -107q198 -94 379 3l-64 104q-61 -29 -126 -29zM317 387
q-29 57 -28 125q0 68 28 125l-106 63q-47 -90 -46 -191t46 -185zM574 799q64 0 126 -29l64 104q-91 48 -193 46t-186 -46l64 -104q61 29 125 29zM104 506q-2 195 133 334t330 142t335 -133t144 -331t-134 -335q-136 -140 -330 -143t-335 134q-140 137 -143 332z" />
    <glyph glyph-name="L" unicode="L" horiz-adv-x="1146" 
d="M266 868q0 26 -17 42t-41 16t-41 -16t-17 -42q0 -25 17 -42t41 -17t41 17t17 42zM208 762q-44 0 -75 31t-31 75t31 75q31 32 75 32t75 -32t31 -76q0 -45 -32 -75q-30 -30 -74 -30zM723 356q90 16 149 89q60 73 60 172t-77 177t-177 76q-100 0 -172 -59t-90 -149
q125 0 215 -90t92 -216zM416 559q14 -76 70 -131t135 -72q-1 82 -61 142t-144 61zM412 145q119 0 180 103q-106 24 -184 100t-101 182q-102 -61 -102 -178q-1 -86 61 -146t146 -61zM676 983q150 0 260 -110t108 -259q0 -150 -99 -256t-243 -118q-35 -88 -113 -144
q-79 -55 -191 -55t-204 91q-92 92 -92 204t54 191t143 114q12 143 119 243q108 100 258 99z" />
    <glyph glyph-name="M" unicode="M" 
d="M614 401q-46 0 -80 33t-34 78t34 78t80 33q25 0 -2 -72q-8 -25 2 -39t87 8q22 6 26 -8q0 -45 -33 -78t-80 -33zM385 511q1 -91 67 -155t161 -65q95 1 162 65t67 155t-67 157t-161 66t-162 -66t-67 -157zM614 799q94 0 182 -26q88 -25 144 -63q113 -74 166 -153
q20 -31 20 -45q0 -39 -85 -118q-177 -169 -427 -169q-246 0 -427 169q-82 78 -84 117q-1 38 63 99q64 62 122 100t145 64t181 25z" />
    <glyph glyph-name="N" unicode="N" horiz-adv-x="1146" 
d="M608 778v-252l154 -153l-51 -49l-174 174v280h71zM572 881q-152 0 -260 -109q-108 -108 -108 -260t108 -260q107 -108 260 -109q153 0 262 109q108 108 108 260t-108 260t-262 109zM573 983q195 0 333 -138t138 -333t-138 -333t-333 -138t-333 138t-138 333t138 333
t333 138z" />
    <glyph glyph-name="O" unicode="O" horiz-adv-x="860" 
d="M584 942v-217h-308v217q0 30 36 56t117 26t118 -26t37 -56zM584 492q0 -30 -37 -56t-118 -26t-117 26t-36 56v161h308v-161zM737 653q20 0 21 -20v-141q0 -94 -71 -168t-206 -86v-136h133q20 0 21 -20v-62q0 -20 -21 -20h-368q-20 0 -21 20v62q0 20 21 20h133v136
q-135 12 -206 86t-71 168v141q0 20 21 20h31q20 0 20 -20v-141q0 -68 60 -126t196 -58t196 58q60 60 60 126v141q0 20 21 20h30z" />
    <glyph glyph-name="P" unicode="P" horiz-adv-x="1126" 
d="M829 973v-174h-71v174h71zM369 973v-174h-72v174h72zM922 154v409h-717v-409h717zM922 870q42 0 72 -30t30 -72v-614q0 -43 -31 -73t-71 -30h-717q-43 0 -73 30t-30 73v614q0 41 30 72t73 30h45v-102h164v102h297v-102h163v102h48z" />
    <glyph glyph-name="Q" unicode="Q" horiz-adv-x="618" 
d="M473 973q4 -5 -77 -191t-79 -191q1 -5 97 -45t99 -56t-87 -126t-184 -214t-97 -100q-4 3 36 95q40 91 81 187t39 102t-97 46q-96 40 -100 54t86 124q90 112 184 215q93 103 99 100z" />
    <glyph glyph-name="R" unicode="R" horiz-adv-x="778" 
d="M416 512q0 50 43 93q6 7 31 32q124 119 124 151l2 52q-106 -54 -228 -54t-224 54l2 -52q0 -36 115 -144q16 -15 23 -22l20 -20q37 -37 41 -90q0 -56 -54 -102l-26 -26q-119 -113 -119 -151v-67q8 4 68 23q131 41 131 106q0 17 12 25t25 1q14 -7 14 -34t35 -53t95 -45
t68 -23v67q0 35 -93 124q-93 90 -99 113q-6 24 -6 42zM385 960q-117 0 -203 -55l-18 -16q-4 -8 4 -12q90 -55 223 -55t223 50q16 10 -16 33q-96 55 -213 55zM676 788q0 -66 -100 -148t-99 -128q0 -45 100 -127q39 -31 69 -73t30 -79v-118q0 -35 -88 -75t-199 -40t-199 40
t-88 75v118q0 37 31 79t69 73q99 81 99 126q1 45 -99 127t-100 150v121q0 35 88 75t199 40t199 -40t88 -75v-121z" />
    <glyph glyph-name="S" unicode="S" horiz-adv-x="983" 
d="M102 239q0 47 34 81t82 34t82 -34t34 -81q0 -48 -34 -82t-82 -34t-82 34t-34 82zM102 657q221 -1 378 -157t157 -377h-121q0 172 -122 293t-292 121v120zM102 901q322 0 550 -228t229 -550h-123q0 272 -192 465t-464 192v121z" />
    <glyph glyph-name="T" unicode="T" horiz-adv-x="1208" 
d="M605 922q294 0 501 -211l-72 -72q-178 180 -430 180t-430 -180l-72 72q209 211 503 211zM606 717q210 0 357 -150l-72 -73q-119 120 -286 120t-288 -120l-71 73q150 150 360 150zM604 512q125 0 215 -90l-71 -72q-56 60 -142 60t-145 -60l-72 72q90 90 215 90zM504 205
q0 43 30 73t71 29q42 1 72 -29t30 -73t-30 -73t-72 -30q-41 0 -71 30t-30 73z" />
    <glyph glyph-name="U" unicode="U" horiz-adv-x="921" 
d="M358 731v-92h205v92q-1 113 -103 113t-102 -113zM758 639q20 -1 40 -21t21 -40v-400q0 -20 -14 -40t-35 -25l-61 -21q-53 -16 -101 -16h-297q-47 0 -100 16l-61 21q-20 6 -34 25q-13 19 -14 40v400q0 23 16 42t36 19h102v72q0 236 205 235q100 0 152 -61t53 -174v-72h92z
" />
    <glyph glyph-name="V" unicode="V" horiz-adv-x="921" 
d="M758 614q20 0 40 -20t21 -41v-399q0 -20 -14 -40t-35 -28l-61 -18q-43 -16 -101 -17h-297q-57 0 -100 17l-61 18q-20 6 -34 26t-14 42v399q0 23 16 42t36 19h409v144q0 53 -27 83q-28 30 -75 29q-102 0 -103 -112v-41h-102v20q0 113 52 174t152 61t153 -60
q52 -62 53 -175v-123h92z" />
    <glyph glyph-name="W" unicode="W" horiz-adv-x="890" 
d="M358 154q-35 0 -57 28l-182 242q-19 22 -15 52t28 47t54 13t45 -26l121 -160l303 488q14 26 44 32t55 -9q26 -15 32 -45t-10 -54l-356 -576q-23 -33 -58 -32h-4z" />
    <glyph glyph-name="X" unicode="X" horiz-adv-x="686" 
d="M523 246q-26 0 -44 18l-135 154l-137 -154q-16 -18 -42 -18t-44 17t-19 43q0 26 19 44l141 162l-141 162q-18 16 -19 42q0 26 18 44t45 18q26 0 42 -18l137 -156l135 156q18 18 44 18t43 -18q18 -18 18 -44t-19 -42l-141 -162l141 -162q19 -18 19 -44t-19 -42
q-16 -18 -42 -18z" />
    <glyph glyph-name="Y" unicode="Y" horiz-adv-x="1064" 
d="M791 565h-519v-104h519v104zM532 942q178 0 304 -126t127 -304q0 -178 -126 -304q-127 -126 -305 -126t-304 126t-126 304t126 304t304 126z" />
    <glyph glyph-name="Z" unicode="Z" horiz-adv-x="1064" 
d="M586 459h207v104h-207v207h-105v-207h-207v-104h207v-205h105v205zM532 942q178 0 304 -126t127 -304q0 -178 -126 -304q-127 -126 -305 -126t-304 126t-126 304t126 304t304 126z" />
    <glyph glyph-name="bracketleft" unicode="[" horiz-adv-x="1064" 
d="M621 512l155 156l-88 90l-156 -158l-157 158l-88 -90l155 -156l-155 -158l88 -88l157 158l156 -158l88 88zM532 942q178 0 304 -126t127 -304q0 -178 -126 -304q-127 -126 -305 -126t-304 126t-126 304t126 304t304 126z" />
    <glyph glyph-name="backslash" unicode="\" horiz-adv-x="798" 
d="M666 563q30 0 30 -51t-30 -51h-533q-31 0 -31 51t31 51h533z" />
    <glyph glyph-name="bracketright" unicode="]" horiz-adv-x="798" 
d="M666 563q30 0 30 -51t-30 -51h-215v-215q1 -31 -51 -31t-52 31v215h-215q-31 0 -31 51t31 51h215v215q0 31 51 31t52 -31v-215h215z" />
    <glyph glyph-name="asciicircum" unicode="^" horiz-adv-x="1146" 
d="M583 154q137 0 243 104t106 244t-82 237l-504 -506q100 -79 237 -79zM215 522q0 -140 80 -237l504 503q-98 82 -237 82t-243 -104t-104 -244zM573 983q195 0 333 -138t138 -333t-138 -333t-333 -138t-333 138t-138 333t138 333t333 138z" />
    <glyph glyph-name="underscore" unicode="_" horiz-adv-x="675" 
d="M250 0q-102 0 -55 180l61 260q16 60 1 60t-57 -18t-71 -40l-27 45q92 80 194 129t155 50q78 0 34 -166l-71 -275q-16 -66 6 -65q43 0 123 61l30 -41q-88 -88 -180 -134t-143 -46zM455 1024q55 0 83 -29t28 -75t-41 -86q-40 -39 -93 -39q-53 -1 -81 27q-29 28 -27 74
t38 87q38 41 93 41z" />
    <glyph glyph-name="grave" unicode="`" horiz-adv-x="1150" 
d="M500 217q31 0 86 28t108 81l-18 24q-49 -37 -74 -37q-12 0 -4 39l43 162q27 98 -20 98q-31 0 -93 -28t-118 -76l16 -29q47 35 78 35q8 0 0 -35l-39 -153q-28 -109 35 -109zM684 766q0 59 -61 59q-43 1 -67 -23t-24 -52q-4 -58 66 -60q38 0 62 23t24 53zM104 506
q-2 195 134 335t331 143t335 -134t142 -332t-134 -334t-330 -142t-334 133q-139 136 -144 331z" />
    <glyph glyph-name="a" unicode="a" horiz-adv-x="798" 
d="M276 158q2 48 34 76t77 26t75 -32t28 -76t-34 -75q-30 -28 -76 -26t-76 31t-28 76zM696 723q0 -68 -43 -129q-20 -25 -92 -80l-45 -33q-41 -29 -49 -54t-8 -45t-17 -22h-131q-16 0 -16 15q5 99 25 123q41 47 110 94l25 16q25 20 32 35q29 37 29 77t-26 76t-94 36t-98 -47
q-28 -46 -28 -93h-168q6 168 115 236q71 44 187 44t204 -63t88 -186z" />
    <glyph glyph-name="b" unicode="b" horiz-adv-x="1150" 
d="M643 635q0 -37 -34 -59q-57 -38 -77 -61t-24 -85v-10h108v4q0 39 35 65l29 21q46 40 64 62t18 69q0 80 -55 119t-127 39q-181 0 -191 -176v-7h113v7q0 29 17 55t54 24q70 0 70 -67zM567 225q29 1 48 19t22 47q0 68 -70 71h-2q-29 0 -48 -19t-20 -48t18 -48t50 -22h2z
M104 506q-2 195 133 334t330 142t335 -133t144 -331t-134 -335q-136 -140 -330 -143t-335 134q-140 137 -143 332z" />
    <glyph glyph-name="c" unicode="c" horiz-adv-x="1189" 
d="M657 360v308h-125v-308h125zM657 180v103h-125v-103h125zM1051 78h-912q-20 0 -30 17t0 34l454 801q12 18 34 18t30 -18l454 -801q10 -15 0 -33t-30 -18z" />
    <glyph glyph-name="d" unicode="d" horiz-adv-x="1167" 
d="M518 932q172 0 294 -120t126 -290h127l-188 -209l-189 209h146q-4 127 -96 216t-220 89q-129 0 -220 -92t-91 -223t91 -223q92 -92 208 -92t201 61l71 -78q-116 -88 -274 -88t-280 123t-122 297t122 297t294 123z" />
    <glyph glyph-name="e" unicode="e" horiz-adv-x="1167" 
d="M647 932q172 0 295 -123t123 -297t-123 -297q-124 -123 -282 -123t-273 88l72 78q85 -61 201 -61t207 92t91 223t-91 223t-220 92t-220 -89t-95 -216h145l-188 -209l-187 209h125q4 170 126 290t294 120z" />
    <glyph glyph-name="f" unicode="f" 
d="M911 338v102l215 -184l-215 -184v123h-34q-145 0 -269 118q46 59 60 78t20 26t8 11q90 -90 181 -90h34zM211 666h-109v143h109q139 0 258 -109q-57 -72 -65 -83t-23 -31q-80 80 -170 80zM877 676q-55 0 -109 -33t-83 -68q-30 -35 -82 -102t-80 -100t-79 -79
q-101 -91 -233 -89h-109v143h109q55 0 107 33t82 68t89 113t99 122q40 45 121 90q80 45 168 45h34v123l215 -184l-215 -185v103h-34z" />
    <glyph glyph-name="g" unicode="g" horiz-adv-x="1075" 
d="M870 707q43 0 73 -30t30 -73v-297q0 -43 -30 -73t-73 -29h-706v143h665v215h-512v-112l-215 184l215 184v-112h553z" />
    <glyph glyph-name="h" unicode="h" 
d="M1004 410h122l-194 -205l-195 205h123v266h-227l-131 143h399q41 1 72 -29t31 -73v-307zM369 348h227l131 -143h-399q-43 -1 -73 29t-30 73v307h-123l195 205l195 -205h-123v-266z" />
    <glyph glyph-name="i" unicode="i" horiz-adv-x="921" 
d="M768 358q20 0 36 -15t15 -35q0 -20 -15 -36t-36 -16h-614q-23 0 -37 15q-15 15 -15 35t14 36t38 16h614zM154 666q-23 0 -37 15q-15 15 -15 35t14 36t38 16h614q20 0 36 -15t15 -35q0 -20 -15 -36t-36 -16h-614zM768 563q20 0 36 -15q16 -16 15 -36q0 -20 -15 -36
t-36 -15h-614q-23 0 -37 15q-15 16 -15 36t14 36t38 15h614z" />
    <glyph glyph-name="j" unicode="j" 
d="M461 768q23 0 37 -15t14 -35t-14 -36t-37 -16h-307q-20 0 -36 15t-16 35t16 36t36 16h307zM1096 563q30 0 30 -51t-30 -51h-174v-174q0 -31 -52 -31t-51 31v174h-168q-31 0 -30 51q0 51 30 51h168v174q0 31 51 31t52 -31v-174h174zM461 358q23 0 37 -15t14 -35t-14 -36
t-37 -16h-307q-20 0 -36 15t-16 35t16 36t36 16h307zM461 563q23 0 37 -15q14 -16 14 -36t-14 -36t-37 -15h-307q-20 0 -36 15q-16 16 -16 36t16 36t36 15h307z" />
    <glyph glyph-name="k" unicode="k" horiz-adv-x="819" 
d="M635 461q82 0 82 -82v-92q0 -82 -82 -82h-92q-82 0 -82 82v92q0 82 82 82h92zM276 461q82 0 82 -82v-92q0 -82 -82 -82h-92q-82 0 -82 82v92q0 82 82 82h92zM635 819q82 0 82 -82v-92q0 -82 -82 -82h-92q-82 0 -82 82v92q0 82 82 82h92zM276 819q82 0 82 -82v-92
q0 -82 -82 -82h-92q-82 0 -82 82v92q0 82 82 82h92z" />
    <glyph glyph-name="l" unicode="l" horiz-adv-x="921" 
d="M604 356v-88h-287v88h287zM604 760v-90h-287v90h287zM717 154v716h-512v-716h512zM717 973q41 0 71 -31t31 -72v-716q0 -43 -31 -73t-71 -30h-512q-43 0 -73 30t-30 73v716q0 41 30 72t73 31h512zM319 467v92h287v-92h-287z" />
    <glyph glyph-name="m" unicode="m" horiz-adv-x="921" 
d="M717 154v716h-512v-716h512zM717 973q43 0 73 -31t29 -72v-716q1 -43 -29 -73t-73 -30h-512q-41 0 -72 30t-31 73v716q0 41 31 72t72 31h512z" />
    <glyph glyph-name="n" unicode="n" horiz-adv-x="921" 
d="M717 154v512h-307v-512h307zM205 358h102v359q1 19 15 35t36 16h154v102h-307v-512zM768 768q23 0 37 -15t14 -36v-615q0 -20 -14 -35t-37 -16h-410q-20 -1 -35 15t-16 36v154h-153q-20 0 -36 15q-15 15 -16 36v615q0 20 16 35t36 16h409q23 1 37 -15t14 -36v-154h154z
" />
    <glyph glyph-name="o" unicode="o" horiz-adv-x="1024" 
d="M922 768h-820v-512h820v512zM0 768q0 41 31 72t71 30h820q42 0 72 -30t30 -72v-512q0 -43 -30 -73t-72 -29h-820q-42 0 -72 30t-30 72v512z" />
    <glyph glyph-name="p" unicode="p" 
d="M1032 129v164l-74 166l-172 -62l-133 -137l-141 176l-94 -219v-88h614zM1087 590q15 0 27 -12t12 -29v-483q0 -16 -11 -28t-28 -13h-739q-16 0 -27 12t-12 29v483q-1 17 11 29t28 12h739zM348 682q-55 0 -93 -39t-38 -94v-164l-111 305q-6 16 2 32t21 19l696 254
q37 14 49 -24l107 -289h-102l-127 154l-222 -154h-182z" />
    <glyph glyph-name="q" unicode="q" horiz-adv-x="1208" 
d="M492 358l256 154l-256 154v-308zM1106 768h-102v-102h102v-103h-102v-102h102v-103h-102v-102h102v-61q0 -17 -11 -29t-30 -12h-922q-16 0 -28 12t-13 29v61h103v102h-103v103h103v102h-103v103h103v102h-103v61q0 17 12 29t29 12h922q17 0 29 -12t12 -29v-61z" />
    <glyph glyph-name="r" unicode="r" horiz-adv-x="921" 
d="M518 782h-61v-376q-41 16 -88 -2t-70 -50q-23 -33 -10 -65q10 -33 53 -45t88 2q88 27 88 100v266q52 -8 68 -51t8 -65t-3 -21q5 0 13 10q33 45 24 95t-34 80q-76 96 -76 122zM717 973q43 0 73 -31t29 -72v-716q1 -43 -29 -73t-73 -30h-512q-41 0 -72 30t-31 73v716
q0 41 31 72t72 31h512z" />
    <glyph glyph-name="s" unicode="s" horiz-adv-x="1232" 
d="M430 922q51 0 88 -37l29 -29q37 -37 88 -37h350q20 -1 39 -13t23 -28l10 -41h-867l15 133q4 23 20 37t37 15h168zM1081 666q33 0 41 -12t6 -40l-43 -460q-2 -27 -12 -39t-43 -13h-827q-33 0 -43 12t-13 40l-43 460q-2 27 6 39t42 13h929z" />
    <glyph glyph-name="t" unicode="t" horiz-adv-x="1210" 
d="M809 543h-72v-82h-264v82h-72v-103q0 -51 52 -51h305q23 0 36 12t13 25l2 14v103zM248 102q-53 0 -62 52q-6 24 -40 228t-41 241t3 50q9 13 12 17t12 13t13 14l31 31v-82h858v82q29 -31 41 -42q31 -30 31 -53t-22 -147q-22 -123 -40 -234t-21 -126t-18 -28t-30 -16h-727z
M809 922q20 0 35 -14q16 -14 16 -38h-510q0 23 14 36t25 16h420zM963 768v-51h-715v51q0 23 13 36t26 15h624q21 0 36 -14q16 -14 16 -37z" />
    <glyph glyph-name="u" unicode="u" horiz-adv-x="903" 
d="M453 713q75 0 141 15q66 14 98 32t33 30q1 30 -99 54t-174 24t-141 -15q-69 -15 -101 -33t-32 -29t33 -29t101 -34t141 -15zM453 932q156 0 254 -42t92 -89l-74 -608q-2 -12 -35 -36q-32 -24 -98 -44q-142 -43 -280 0q-68 20 -100 44t-34 36l-74 608q-6 47 94 89t255 42z
" />
    <glyph glyph-name="v" unicode="v" horiz-adv-x="1230" 
d="M1034 78h-835q-51 0 -66 47l-29 158q-10 49 33 73l164 111h100l-174 -135h181q10 0 12 -6l43 -115h305l43 115q4 6 12 6h181l-175 135h103l162 -111q43 -25 32 -73l-28 -158q-4 -19 -22 -33t-42 -14zM739 688v-252h-245v252h-154l276 260l277 -260h-154z" />
    <glyph glyph-name="w" unicode="w" horiz-adv-x="1024" 
d="M930 76h-836q-20 0 -40 14q-19 14 -25 35l-29 158q-10 49 33 73l164 109h100l-174 -133h180q8 0 12 -6l43 -115h306l43 115q2 6 12 6h180l-174 133h100l164 -109q43 -25 33 -73l-29 -158q-4 -21 -23 -35t-40 -14zM389 694v252h246v-252h153l-276 -260l-276 260h153z" />
    <glyph glyph-name="x" unicode="x" horiz-adv-x="1128" 
d="M233 377q-20 -1 -33 -15t-10 -36l13 -74q2 -20 19 -36t40 -15h604q23 0 40 15t20 36l14 74q2 20 -10 35t-35 16h-662zM928 127h-727q-20 0 -39 15q-18 15 -23 36l-35 191q-8 53 17 96l160 385q23 45 75 45h107l-21 -207h-139l262 -217l260 217h-137l-20 207h104
q53 0 76 -45l162 -385q23 -45 14 -96l-35 -191q-4 -20 -22 -36t-39 -15z" />
    <glyph glyph-name="y" unicode="y" 
d="M881 659q102 1 174 -69q71 -70 71 -170t-72 -170t-173 -70h-594q-76 0 -130 53q-55 53 -55 128t54 128t131 54q4 0 11 -1t11 -1q-4 25 -4 39q0 110 80 188q81 78 183 78t174 -53t98 -138q25 4 41 4z" />
    <glyph glyph-name="z" unicode="z" 
d="M883 657q102 1 173 -69q70 -70 70 -169t-72 -170t-171 -71h-197v195h109l-181 235l-178 -235h107v-195h-254q-78 0 -132 53t-55 129q0 76 54 128t133 53h22q-4 25 -4 37q0 110 80 188q79 78 181 78t174 -53t100 -136q12 2 41 2z" />
    <glyph glyph-name="braceleft" unicode="{" horiz-adv-x="716" 
d="M598 539q16 -13 16 -25t-12 -27l-442 -272q-25 -16 -41 -6t-17 39v528q0 29 16 39t42 -6z" />
    <glyph glyph-name="bar" unicode="|" horiz-adv-x="747" 
d="M195 870q92 0 92 -67v-584q0 -65 -92 -65t-93 65v584q1 67 93 67zM553 870q92 0 92 -67v-584q0 -65 -92 -65t-92 65v584q0 67 92 67z" />
    <glyph glyph-name="braceright" unicode="}" horiz-adv-x="921" 
d="M460 870q148 0 254 -104t105 -254q0 -150 -105 -254t-254 -104t-253 104t-105 254q0 150 104 254q106 104 254 104z" />
    <glyph glyph-name="asciitilde" unicode="~" horiz-adv-x="819" 
d="M641 819q76 0 76 -67v-482q0 -66 -76 -65h-461q-78 0 -78 65v482q0 68 78 67h461z" />
    <glyph glyph-name="copyright" unicode="&#xa9;" horiz-adv-x="1191" 
d="M751 365q-151 0 -151 146q0 69 38 107t99 39q88 0 125 -67l-63 -33q-10 23 -25 29q-16 10 -26 10q-64 0 -64 -84t64 -84q39 0 57 41l59 -29q-42 -75 -113 -75zM412 512q0 -84 63 -84q41 0 57 41l60 -29q-16 -31 -52 -53t-84 -22t-91 38q-37 39 -37 108t38 107t99 39
q88 0 125 -67l-64 -33q-10 23 -24 29q-16 10 -27 10q-63 0 -63 -84zM600 123q162 2 274 118q112 117 109 277q-2 160 -117 272q-114 112 -276 110t-274 -118t-108 -276t116 -272q114 -112 276 -111zM947 169q-142 -145 -346 -149t-349 138q-146 142 -148 347q-2 203 140 349
t345 149q204 3 349 -139t148 -345q3 -204 -139 -350z" />
    <glyph glyph-name="registered" unicode="&#xae;" horiz-adv-x="1126" 
d="M102 768q0 51 41 51h267v-256h-308v205zM512 205v256h512v-205q0 -20 -15 -36t-36 -15h-461zM102 256v205h308v-256h-267q-41 0 -41 51zM973 819q19 0 35 -15t16 -36v-205h-512v256h461z" />
    <glyph glyph-name="Adieresis" unicode="&#xc4;" horiz-adv-x="1105" 
d="M102 758q0 29 16 38t38 -5l368 -254q22 -16 16 -30q-7 -13 -12 -15l-4 -5l-368 -254q-23 -14 -38 -5t-16 38v492zM553 266v492q0 27 16 37t37 -4l383 -254q26 -18 10 -37q-4 -6 -8 -8l-2 -5l-383 -254q-20 -14 -37 -4q-16 10 -16 37z" />
    <glyph glyph-name="Aring" unicode="&#xc5;" horiz-adv-x="1105" 
d="M582 487q-15 11 -15 26t11 19l4 5l368 254q23 14 38 5t16 -38v-492q0 -29 -16 -38t-38 5zM117 487q-15 11 -15 25t13 20l2 5l383 254q20 14 36 4t17 -37v-492q0 -27 -16 -37t-37 4z" />
    <glyph glyph-name="Ccedilla" unicode="&#xc7;" horiz-adv-x="819" 
d="M102 752q0 59 77 59t77 -59v-478q0 -59 -77 -59t-77 59v478zM293 489q-12 11 -12 25t10 18l2 3l373 235q22 14 36 5t15 -36v-452q-1 -27 -15 -36t-36 5z" />
    <glyph glyph-name="Eacute" unicode="&#xc9;" horiz-adv-x="819" 
d="M563 750q0 59 77 59t77 -59v-476q0 -59 -77 -59t-77 59v476zM102 739q0 27 14 35t36 -6l372 -233q29 -24 0 -46l-372 -233q-20 -14 -35 -6q-14 8 -15 35v454z" />
    <glyph glyph-name="Ntilde" unicode="&#xd1;" horiz-adv-x="1024" 
d="M348 455l103 -103l-146 -147l80 -80l-283 -23l23 287l80 -82zM639 899l283 23l-21 -287l-80 82l-145 -148l-103 103l146 147z" />
    <glyph glyph-name="Odieresis" unicode="&#xd6;" horiz-adv-x="1044" 
d="M252 348l-82 82l291 23l-23 -293l-82 82l-149 -150l-105 105zM942 825l-147 -149l82 -82l-291 -23l22 293l82 -84l150 152z" />
    <glyph glyph-name="Udieresis" unicode="&#xdc;" horiz-adv-x="1124" 
d="M1022 336q0 -34 -24 -58t-58 -24h-799q-35 0 -38 12t26 31l821 463q28 16 50 4t22 -45v-383z" />
    <glyph glyph-name="agrave" unicode="&#xe0;" horiz-adv-x="1110" 
d="M487 616l-276 -276q-41 135 29 290t135 220q37 32 109 12t161 -86l-53 -53q-115 80 -166 61q-19 -47 61 -168zM770 553l51 51q76 -94 104 -176t-2 -113q-61 -63 -224 -139t-326 -20l284 284q139 -102 193 -80q12 30 -17 89q-30 59 -63 104zM991 948q17 -14 17 -36
t-17 -35l-801 -801q-14 -14 -36 -14t-36 14q-16 14 -16 34t17 37l801 801q34 35 71 0z" />
    <glyph glyph-name="aacute" unicode="&#xe1;" horiz-adv-x="1136" 
d="M874 508q-22 0 -34 27q-10 18 -5 38t23 31l100 55q43 25 70 -20q23 -45 -20 -70l-99 -55q-13 -6 -35 -6zM580 795q-18 7 -24 29t3 40l55 99q10 18 30 23t40 -5q18 -11 24 -31t-3 -39l-56 -98q-15 -27 -37 -27t-32 9zM764 668q-23 0 -37 14t-14 36t14 36l98 98
q15 16 35 16t36 -16t17 -36q0 -20 -16 -36l-96 -98q-14 -14 -37 -14zM384 536q84 -136 220 -220q64 -40 104 -51t48 -2t-2 49t-51 105q-83 136 -219 219q-64 40 -104 50t-48 2t2 -48t50 -104zM283 754q43 45 151 -4t222 -162q112 -112 161 -222t6 -153q-74 -74 -254 -147
q-94 -39 -198 -29t-181 86q-76 76 -86 180q-10 103 30 197q78 182 149 254z" />
    <glyph glyph-name="acircumflex" unicode="&#xe2;" horiz-adv-x="952" 
d="M492 705h358v-386h-358v-196l-390 389l390 389v-196z" />
    <glyph glyph-name="atilde" unicode="&#xe3;" horiz-adv-x="983" 
d="M684 498v-361h-385v361h-197l390 387l389 -387h-197z" />
    <glyph glyph-name="adieresis" unicode="&#xe4;" horiz-adv-x="983" 
d="M299 526v359h385v-359h197l-389 -389l-390 389h197z" />
    <glyph glyph-name="aring" unicode="&#xe5;" horiz-adv-x="952" 
d="M461 317h-359v388h359v196l389 -389l-389 -389v194z" />
    <glyph glyph-name="ccedilla" unicode="&#xe7;" horiz-adv-x="952" 
d="M492 653h358v-282h-358v-197l-390 338l390 338v-197z" />
    <glyph glyph-name="egrave" unicode="&#xe8;" horiz-adv-x="880" 
d="M582 498v-361h-285v361h-195l338 387l338 -387h-196z" />
    <glyph glyph-name="eacute" unicode="&#xe9;" horiz-adv-x="880" 
d="M297 526v359h285v-359h196l-338 -389l-338 389h195z" />
    <glyph glyph-name="ecircumflex" unicode="&#xea;" horiz-adv-x="952" 
d="M102 369v284h359l2 197l387 -338l-389 -338l2 195h-361z" />
    <glyph glyph-name="edieresis" unicode="&#xeb;" horiz-adv-x="1146" 
d="M770 420h-209v-115l-196 207l196 207v-115h209v-184zM205 512q-1 -152 107 -260t260 -109q152 0 262 109q108 108 108 260t-108 260t-262 109q-153 -1 -260 -109t-107 -260zM1044 512q0 -195 -138 -333t-333 -138t-333 138t-138 333t138 333t334 138q194 0 332 -138
t138 -333z" />
    <glyph glyph-name="igrave" unicode="&#xec;" horiz-adv-x="1146" 
d="M481 315v209h-116l208 195l207 -195h-114v-209h-185zM572 881q-152 0 -260 -109q-108 -108 -108 -260t108 -260t260 -109q152 0 262 109q108 108 108 260t-108 260t-262 109zM573 41q-195 0 -333 138t-138 333t138 333t334 138q194 0 332 -138t138 -333t-138 -333
t-333 -138z" />
    <glyph glyph-name="iacute" unicode="&#xed;" horiz-adv-x="1146" 
d="M666 711v-211h114l-207 -195l-206 195h114v211h185zM573 143q152 0 261 109q108 110 108 262t-108 260t-261 107q-153 0 -261 -108q-108 -109 -108 -261t109 -260q108 -108 260 -109zM573 983q195 0 333 -138t138 -333t-138 -333t-333 -138t-333 138t-138 333t138 333
t333 138z" />
    <glyph glyph-name="icircumflex" unicode="&#xee;" horiz-adv-x="1146" 
d="M375 604h211v115l194 -207l-194 -207v115h-211v184zM942 512q0 152 -108 260t-262 109q-152 0 -260 -109q-108 -108 -108 -260t108 -260t260 -109q152 1 262 109q108 108 108 260zM102 512q0 195 138 333t334 138q194 0 332 -138t138 -333t-138 -333t-333 -138t-333 138
t-138 333z" />
    <glyph glyph-name="idieresis" unicode="&#xef;" horiz-adv-x="1128" 
d="M995 457h-86v-316q0 -41 -30 -41h-209v316h-209v-316h-201q-38 0 -40 20q-1 7 -1 21v316h-86q-23 0 -29 11t11 28l411 411q14 17 38 17t38 -17l412 -411q16 -16 10 -28t-29 -11z" />
    <glyph glyph-name="ntilde" unicode="&#xf1;" horiz-adv-x="573" 
d="M420 973q23 1 37 -15t14 -36v-871l-184 185l-185 -185v871q0 51 41 51h277z" />
    <glyph glyph-name="ograve" unicode="&#xf2;" horiz-adv-x="1024" 
d="M205 512v-307h307v-103h-307q-43 0 -73 30t-30 73v307h103zM819 410v409h-409v-409h409zM819 922q41 0 72 -31t31 -72v-409q0 -43 -31 -73t-72 -30h-409q-43 0 -73 30t-30 73v409q0 43 30 73t71 30h411z" />
    <glyph glyph-name="oacute" unicode="&#xf3;" horiz-adv-x="1126" 
d="M883 690v-69l-207 -82v69zM883 477v-69l-207 -82v69zM942 287v573l-328 -131v-573zM512 156v573l-328 131v-573zM102 266v656q0 25 23 43q25 14 49 4l389 -156l391 156q25 10 50 -4q20 -16 20 -43v-656q0 -33 -31 -47l-409 -164q-8 -2 -11 -4h-18l-420 168q-33 14 -33 47
zM453 608v-69l-207 82v69zM453 395v-69l-207 82v69z" />
    <glyph glyph-name="ocircumflex" unicode="&#xf4;" horiz-adv-x="1013" 
d="M201 600q1 -90 69 -160t159 -70t156 66q65 64 64 154q0 90 -69 160q-70 70 -160 70t-155 -65q-64 -65 -64 -155zM428 272q-131 0 -228 98t-98 230q0 131 94 223t224 92q131 0 228 -97t97 -228q0 -90 -45 -164l193 -195q35 -35 6 -61l-47 -49q-33 -33 -70 0l-194 194
q-76 -43 -160 -43z" />
    <glyph glyph-name="odieresis" unicode="&#xf6;" horiz-adv-x="1146" 
d="M932 625q47 0 80 -34q32 -34 32 -79t-32 -79t-80 -34q-47 0 -80 33t-33 80t33 80t80 33zM461 512q1 47 33 80t78 33t80 -34t34 -79t-34 -79t-80 -34t-78 33t-33 80zM215 625q47 0 80 -34t33 -79t-33 -79t-80 -34t-80 33t-33 80t33 80t80 33z" />
    <glyph glyph-name="caron" unicode="&#x2c7;" horiz-adv-x="1024" 
 />
    <glyph glyph-name="ogonek" unicode="&#x2db;" horiz-adv-x="1024" 
 />
    <glyph glyph-name="trademark" unicode="&#x2122;" horiz-adv-x="948" 
d="M416 205q53 -31 102 -18t78 63t15 100q-13 51 -64 80l-66 39q0 -2 -2 -6l-129 -219zM258 481q53 -29 102 -15t78 62q29 50 15 100t-66 81l-65 36l-129 -225zM709 709l-66 39l-129 -222q0 -4 -2 -6l66 -37q53 -29 102 -15t78 62q30 50 16 100t-65 79zM662 399
q50 -90 2 -172t-124 -100t-155 25l-66 38l-108 -190l-59 33l213 366q-68 -10 -138 29l-125 72l193 331l123 -69q68 -39 94 -105l213 367l57 -35l-108 -188l63 -39q78 -45 101 -121t-19 -145q-55 -93 -157 -97z" />
  </font>
</defs>
</svg>
